<?xml version="1.0" encoding="UTF-8" standalone="no"?>
<svg
   viewBox="0 0 425.6 425.6"
   version="1.1"
   id="svg2"
   sodipodi:docname="coastal-tourism.svg"
   inkscape:version="1.3.2 (091e20e, 2023-11-25, custom)"
   xmlns:inkscape="http://www.inkscape.org/namespaces/inkscape"
   xmlns:sodipodi="http://sodipodi.sourceforge.net/DTD/sodipodi-0.dtd"
   xmlns="http://www.w3.org/2000/svg"
   xmlns:svg="http://www.w3.org/2000/svg">
  <sodipodi:namedview
     id="namedview2"
     pagecolor="#ffffff"
     bordercolor="#000000"
     borderopacity="0.25"
     inkscape:showpageshadow="2"
     inkscape:pageopacity="0.0"
     inkscape:pagecheckerboard="0"
     inkscape:deskcolor="#d1d1d1"
     inkscape:zoom="2.0089285"
     inkscape:cx="212.55111"
     inkscape:cy="212.8"
     inkscape:window-width="1920"
     inkscape:window-height="1111"
     inkscape:window-x="-9"
     inkscape:window-y="-9"
     inkscape:window-maximized="1"
     inkscape:current-layer="svg2" />
  <defs
     id="defs2">
    <linearGradient
       id="logo-gradient"
       x1="212.8"
       y1="0"
       x2="212.8"
       y2="425.6"
       gradientUnits="userSpaceOnUse">
      <stop
         offset="0%"
         stop-color="#fbbc05"
         id="stop1">
        <animate
           attributeName="stop-color"
           values="#fbbc05; #c81249; #fbbc05"
           dur="3s"
           repeatCount="indefinite" />
      </stop>
      <stop
         offset="100%"
         stop-color="#c81249"
         id="stop2">
        <animate
           attributeName="stop-color"
           values="#c81249; #fbbc05; #c81249"
           dur="3s"
           repeatCount="indefinite" />
      </stop>
    </linearGradient>
  </defs>
  <title
     id="title2">Fichier 3</title>
  <g
     id="Calque_2"
     data-name="Calque 2"
     transform="matrix(0.76842105,0,0,0.76842105,56.746667,57.742223)">
    <g
       id="Calque_1-2"
       data-name="Calque 1">
      <path
         fill="url('#logo-gradient')"
         id="shape"
         d="m 325.3,237.81 -1.3,2.19 9.85,5.71 1.26,-2.18 z M 292,186.69 A 33.31,33.31 0 1 0 325.29,220 33.32,33.32 0 0 0 292,186.69 m -25.63,-8.57 5.68,9.81 2.15,-1.24 -5.68,-9.84 z m -79.42,-23.21 v 124 h -28.76 l -39.91,-32.13 a 8.64,8.64 0 0 0 -12.09,1.3 l -1.19,1.57 a 9,9 0 0 0 -1.26,2.18 l 47.49,38.25 h 130.12 c 0,-0.2 0,-0.39 0,-0.58 v -1.93 a 8.63,8.63 0 0 0 -8.6,-8.61 H 195.5 v -124 a 2.45,2.45 0 0 0 -0.06,-0.6 c -1.39,-0.12 -2.8,-0.19 -4.23,-0.19 -1.43,0 -2.83,0.07 -4.22,0.19 a 2.4,2.4 0 0 0 -0.07,0.6 m 81.57,108.27 5.68,-9.84 -2.17,-1.32 -5.68,9.85 z m -19.69,-19.73 1.24,2.18 9.85,-5.71 -1.24,-2.16 z m 5.42,-24.74 h -11.38 v 2.5 h 11.37 z m -4.22,-24.41 -1.24,2.18 9.85,5.66 1.24,-2.16 z m 43.18,63.43 h -2.5 v 11.36 h 2.5 z m 18.71,-5.71 -2.15,1.27 5.68,9.84 2.15,-1.26 z m -148,88.48 11.3,-23 h 80.53 l 11.25,23 z M 102.82,255.7 a 10.41,10.41 0 0 0 -14.57,1.59 l -1.47,1.82 a 10.41,10.41 0 0 0 1.58,14.58 l 51.47,41.43 v 0 a 10.29,10.29 0 0 0 6.58,2.36 H 158 l -22.13,45.12 h 17.23 l 6.61,-13.46 111.54,-0.09 6.63,13.55 h 17.24 L 273,317.51 h 16.1 a 10.38,10.38 0 0 0 10.36,-10.35 V 304.8 A 10.4,10.4 0 0 0 289.1,294.44 H 151 Z m 88.39,-180 c 1.61,0 3.21,0 4.8,0.1 V 67.27 A 4.32,4.32 0 0 0 191.72,63 h -1 a 4.32,4.32 0 0 0 -4.31,4.29 v 8.52 c 1.59,-0.06 3.18,-0.1 4.8,-0.1 m 86.42,80.68 c 0,-0.86 0.06,-1.81 0.06,-2.79 0,-19.33 -9.63,-36.81 -25.2,-49.5 -14.58,-11.9 -34.36,-19.53 -56.33,-20.52 14.69,8.92 35.06,52.38 34.38,76.8 -0.16,0.15 -0.29,0.23 -0.44,0.38 a 50.51,50.51 0 0 0 -6.39,-6.1 53.74,53.74 0 0 0 -9,-5.8 50.79,50.79 0 0 0 -11.4,-4.19 52,52 0 0 0 -24.12,0 50.67,50.67 0 0 0 -11.39,4.19 53.16,53.16 0 0 0 -9,5.8 50.63,50.63 0 0 0 -6.41,6.1 c -0.54,-0.47 -1.09,-0.93 -1.66,-1.37 -2.61,-23.75 20.45,-66.9 35.54,-75.8 -21.93,1 -41.69,8.66 -56.26,20.52 -15.58,12.69 -25.2,30.17 -25.2,49.5 0,1 0,1.93 0,2.79 0,0.19 0,0.35 0,0.54 a 42.66,42.66 0 0 1 18.26,-4.13 42.52,42.52 0 0 1 29.5,11.9 49.43,49.43 0 0 1 16.43,-13.42 49.38,49.38 0 0 1 44.39,0 49.72,49.72 0 0 1 16.42,13.39 42.43,42.43 0 0 1 40,-10.57 41.71,41.71 0 0 1 7.77,2.8 c 0,-0.19 0,-0.35 0,-0.54 m 3.11,-2.79 c 0,0.91 0,1.91 -0.07,2.93 -0.07,1.02 -0.12,2 -0.2,2.92 l -0.23,2.31 -2,-1.11 A 39.59,39.59 0 0 0 259.3,155.83 39.43,39.43 0 0 0 230.79,168 l -1.26,1.31 -1.07,-1.45 A 47,47 0 0 0 212,154 46.44,46.44 0 0 0 170.34,154 46.91,46.91 0 0 0 154,167.9 l -1.08,1.45 -1.27,-1.35 a 39.52,39.52 0 0 0 -47.43,-7.4 l -2,1.11 -0.23,-2.31 c -0.09,-1 -0.15,-2 -0.2,-2.92 -0.05,-0.92 -0.07,-2 -0.07,-2.93 0,-20.31 10.06,-38.62 26.35,-51.86 16.29,-13.24 38.52,-21.33 63.18,-21.33 24.66,0 47,8.13 63.19,21.33 16.19,13.2 26.33,31.56 26.33,51.86 m 2.74,1.46 c 0,-0.7 0,-1.18 0,-1.46 a 64,64 0 0 0 -7.12,-29.28 77.2,77.2 0 0 0 -20.26,-24.74 95.31,95.31 0 0 0 -29.87,-16.26 110.78,110.78 0 0 0 -70.11,0 95.38,95.38 0 0 0 -29.88,16.26 77.2,77.2 0 0 0 -20.27,24.77 64.15,64.15 0 0 0 -7.11,29.28 c 0,0.28 0,0.76 0,1.46 0,0.7 0.06,1.11 0.07,1.61 0.01,0.5 0.06,1.09 0.09,1.52 0.03,0.43 0.07,0.92 0.15,1.53 l 0.34,3.61 0.28,2.88 2.53,-1.4 3.17,-1.72 a 36.84,36.84 0 0 1 4.13,-1.91 32.84,32.84 0 0 1 4.35,-1.39 35.46,35.46 0 0 1 4.5,-0.88 43,43 0 0 1 4.58,-0.26 35.92,35.92 0 0 1 7.39,0.73 37.29,37.29 0 0 1 7.05,2.19 35,35 0 0 1 6.47,3.61 36,36 0 0 1 5.63,4.8 l 2,2.06 1.58,1.62 1.34,-1.8 1.68,-2.28 a 43.49,43.49 0 0 1 24.91,-16.56 44.15,44.15 0 0 1 20.17,0 43.57,43.57 0 0 1 24.95,16.54 l 1.68,2.28 1.33,1.8 1.58,-1.62 2,-2.06 a 36.72,36.72 0 0 1 5.63,-4.8 34.68,34.68 0 0 1 6.48,-3.61 37.33,37.33 0 0 1 7,-2.19 36.16,36.16 0 0 1 7.4,-0.73 42.74,42.74 0 0 1 4.58,0.26 35,35 0 0 1 4.5,0.88 31.52,31.52 0 0 1 4.35,1.39 37.07,37.07 0 0 1 4.15,1.91 l 3.14,1.72 2.54,1.4 0.28,-2.88 0.35,-3.61 c 0.06,-0.61 0.1,-1.11 0.13,-1.55 0.03,-0.44 0.06,-0.92 0.09,-1.5 0.03,-0.58 0,-1.05 0.06,-1.61 m 7.24,27.2 h 2.5 v -11.34 h -2.5 z m 21.21,5.69 5.68,-9.81 -2.15,-1.27 -5.68,9.84 z m 13.37,14.26 9.85,-5.66 -1.26,-2.18 L 324,200 Z m 4.42,19 h 11.39 v -2.5 h -11.42 z m 72.21,-8.44 c 0,104.3 -84.84,189.14 -189.14,189.14 -104.3,0 -189.17,-84.77 -189.17,-189.07 0,-104.3 84.86,-189.14 189.14,-189.14 104.28,0 189.14,84.86 189.14,189.14 m 23.66,0 C 425.6,95.47 330.14,0 212.8,0 95.46,0 0,95.47 0,212.8 c 0,117.33 95.47,212.8 212.8,212.8 117.33,0 212.8,-95.47 212.8,-212.8"
         style="fill:url(#logo-gradient)" />
    </g>
  </g>
</svg>
